<svg width="159" height="121" viewBox="0 0 159 121" fill="none" xmlns="http://www.w3.org/2000/svg">
<path d="M91.3911 34.2567C97.565 36.5925 102.773 40.9443 106.176 46.612C109.58 52.2796 110.981 58.9335 110.155 65.5028C113.761 64.4609 117.044 62.5144 119.693 59.8474C122.342 57.1804 124.271 53.8809 125.296 50.2609C131.811 49.6321 137.996 47.0804 143.07 42.9286C148.145 38.7767 151.879 33.211 153.802 26.9354C154.508 24.0877 154.058 21.077 152.549 18.5656C151.041 16.0543 148.599 14.248 145.76 13.5442C139.333 12.3188 132.685 13.0327 126.656 15.5955C120.628 18.1583 115.49 22.455 111.893 27.9423C108.225 27.1608 104.417 27.3305 100.829 28.4354C97.2421 29.5402 93.9936 31.5438 91.3911 34.2567Z" fill="#A9D3F3"/>
<path d="M101.185 40.3888C96.9675 41.5662 93.1953 43.9792 90.3516 47.3185C87.5079 50.6577 85.7222 54.7711 85.2235 59.1313C89.298 60.7256 93.7562 61.0627 98.0267 60.0993C102.297 59.1359 106.185 56.916 109.193 53.7241M130.474 28.7341C130.24 29.6794 130.389 30.6787 130.89 31.5124C131.391 32.346 132.201 32.9456 133.144 33.1792C134.086 33.4128 135.083 33.2614 135.915 32.7581C136.747 32.2549 137.346 31.4412 137.58 30.4959C137.815 29.5506 137.665 28.5512 137.165 27.7176C136.664 26.884 135.853 26.2844 134.911 26.0508C133.969 25.8172 132.972 25.9686 132.14 26.4718C131.308 26.975 130.709 27.7888 130.474 28.7341Z" fill="#F9C486"/>
<g filter="url(#filter0_f_2002_78)">
<path d="M95.4473 33.1253C101.235 35.315 106.118 39.3949 109.308 44.7083C112.499 50.0217 113.813 56.2597 113.038 62.4185C116.419 61.4417 119.497 59.6168 121.98 57.1165C124.464 54.6162 126.272 51.523 127.233 48.1292C133.341 47.5397 139.14 45.1475 143.897 41.2551C148.654 37.3627 152.155 32.1449 153.958 26.2616C154.62 23.5918 154.197 20.7693 152.783 18.4149C151.369 16.0605 149.08 14.3671 146.419 13.7073C140.393 12.5585 134.16 13.2278 128.509 15.6304C122.857 18.033 118.04 22.0612 114.668 27.2055C111.229 26.4728 107.659 26.6319 104.296 27.6677C100.933 28.7036 97.8872 30.5819 95.4473 33.1253Z" fill="url(#paint0_linear_2002_78)"/>
<path d="M104.628 38.8741C100.675 39.9779 97.1382 42.2401 94.4722 45.3707C91.8062 48.5012 90.1322 52.3575 89.6647 56.4452C93.4845 57.9399 97.6641 58.2559 101.668 57.3527C105.671 56.4495 109.316 54.3684 112.136 51.3759M132.087 27.9478C131.868 28.834 132.008 29.7709 132.477 30.5524C132.946 31.334 133.706 31.8961 134.59 32.1151C135.473 32.3341 136.408 32.1921 137.188 31.7204C137.968 31.2486 138.529 30.4857 138.749 29.5995C138.969 28.7133 138.829 27.7764 138.359 26.9949C137.89 26.2133 137.13 25.6512 136.247 25.4322C135.363 25.2132 134.429 25.3552 133.649 25.8269C132.869 26.2987 132.307 27.0616 132.087 27.9478Z" fill="url(#paint1_linear_2002_78)"/>
</g>
<g filter="url(#filter1_d_2002_78)">
<path d="M95.4473 33.1253C101.235 35.315 106.118 39.3949 109.308 44.7083C112.499 50.0217 113.813 56.2597 113.038 62.4185C116.419 61.4417 119.497 59.6168 121.98 57.1165C124.464 54.6162 126.272 51.523 127.233 48.1292C133.341 47.5397 139.14 45.1475 143.897 41.2551C148.654 37.3627 152.155 32.1449 153.958 26.2616C154.62 23.5918 154.197 20.7693 152.783 18.4149C151.369 16.0605 149.08 14.3671 146.419 13.7073C140.393 12.5585 134.16 13.2278 128.509 15.6304C122.857 18.033 118.04 22.0612 114.668 27.2055C111.229 26.4728 107.659 26.6319 104.296 27.6677C100.933 28.7036 97.8872 30.5819 95.4473 33.1253Z" fill="url(#paint2_linear_2002_78)"/>
<path d="M104.628 38.8741C100.675 39.9779 97.1382 42.2401 94.4722 45.3707C91.8062 48.5012 90.1322 52.3575 89.6647 56.4452C93.4845 57.9399 97.6641 58.2559 101.668 57.3527C105.671 56.4495 109.316 54.3684 112.136 51.3759M132.087 27.9478C131.868 28.834 132.008 29.7709 132.477 30.5524C132.946 31.334 133.706 31.8961 134.59 32.1151C135.473 32.3341 136.408 32.1921 137.188 31.7204C137.968 31.2486 138.529 30.4857 138.749 29.5995C138.969 28.7133 138.829 27.7764 138.359 26.9949C137.89 26.2133 137.13 25.6512 136.247 25.4322C135.363 25.2132 134.429 25.3552 133.649 25.8269C132.869 26.2987 132.307 27.0616 132.087 27.9478Z" fill="url(#paint3_linear_2002_78)"/>
</g>
<path d="M150.499 24.2168C149.764 27.1818 145.785 28.747 144.364 28.3945C142.942 28.042 143.995 25.7702 143.773 22.5494C143.552 19.3286 144.903 17.1308 147.026 17.6571C149.148 18.1833 151.234 21.2517 150.499 24.2168Z" fill="white" fill-opacity="0.2"/>
<g filter="url(#filter2_f_2002_78)">
<path fill-rule="evenodd" clip-rule="evenodd" d="M82.4841 80.9678C78.7236 83.764 74.322 85.5728 69.682 86.2286C65.042 86.8844 60.3116 86.3664 55.9235 84.7219C51.5354 83.0774 47.6296 80.359 44.5634 76.8152C41.4972 73.2714 39.3685 69.0153 38.372 64.4364C41.0484 66.0954 43.8132 67.6075 46.654 68.9659C50.9341 71.0134 55.306 72.8633 59.7559 74.5097C64.193 76.1931 68.705 77.6719 73.2777 78.9416C76.3075 79.7831 79.3809 80.4595 82.4841 80.9678ZM87.4051 40.6562C91.8106 46.0087 93.8992 52.5059 93.7911 58.9315L94.5916 59.5512L95.0039 59.8855L95.8426 60.5908L96.6829 61.3472C99.6078 64.0824 102.212 67.7114 100.76 71.584C99.0945 76.0287 93.9514 76.9544 89.5801 76.9262L88.5048 76.9037L87.4791 76.8484C81.1663 76.4216 72.4535 74.2796 61.3951 70.1355C50.3366 65.9913 42.3635 61.8812 37.321 58.0532L36.9198 57.7421L36.0988 57.0828L35.2697 56.3695C32.1109 53.5363 29.1749 49.6163 30.7699 45.355C32.2229 41.4848 36.568 40.4617 40.5687 40.319L41.6989 40.3003L42.2535 40.3077L43.3231 40.3429L44.3356 40.3969C46.9852 37.255 50.2933 34.7343 54.0255 33.0133C57.7577 31.2923 61.8228 30.4131 65.9326 30.4381C70.0425 30.463 74.0966 31.3915 77.8076 33.1578C81.5187 34.924 84.7959 37.4848 87.407 40.6586L87.4051 40.6562ZM40.3767 46.5838L39.5597 46.635C38.6681 46.7034 37.6106 46.8397 36.9247 47.2953L36.617 47.5486C36.2929 48.38 37.2717 49.579 38.059 50.4033L38.7328 51.0749C39.1524 49.533 39.7032 48.0298 40.3791 46.5818L40.3767 46.5838ZM94.9173 69.3952C94.8782 68.6126 94.2568 67.789 93.6154 67.1028L92.9912 66.467C92.8921 66.3711 92.799 66.2824 92.7146 66.1946C92.2786 67.7231 91.7108 69.2189 91.013 70.6646L91.8727 70.6064C92.9032 70.5205 94.2957 70.3061 94.7962 69.6401L94.9281 69.3984L94.9173 69.3952Z" fill="#FFC077"/>
<path d="M81.8551 81.1161C78.9429 80.6185 76.0577 79.9732 73.2108 79.1825C68.631 77.9109 64.112 76.4298 59.6681 74.7438C55.2114 73.0948 50.8328 71.2421 46.5461 69.1915M81.8551 81.1161L46.654 68.9659M81.8551 81.1161C78.2358 83.6891 74.0498 85.3588 69.647 85.9811C65.0484 86.631 60.3602 86.1176 56.0112 84.4878C51.6622 82.858 47.7913 80.1638 44.7525 76.6516C41.8431 73.2891 39.7854 69.2795 38.7486 64.9616M46.5461 69.1915L46.654 68.9659M46.5461 69.1915C46.5461 69.1915 46.5461 69.1915 46.5461 69.1915L46.654 68.9659M46.5461 69.1915C43.8766 67.9149 41.2741 66.5031 38.7486 64.9616M46.654 68.9659C43.9181 67.6577 41.2527 66.2069 38.6688 64.6195C38.6947 64.7338 38.7213 64.8478 38.7486 64.9616M38.7486 64.9616C38.6485 64.9004 38.5484 64.8391 38.4485 64.7775M38.4485 64.7775C38.4223 64.664 38.3968 64.5503 38.372 64.4364L38.4485 64.7775ZM93.5411 58.9273L93.539 59.0525L93.6381 59.1292L94.4363 59.7472L94.843 60.0768L94.8464 60.0797L95.6784 60.7794L96.5121 61.5298C96.5127 61.5303 96.5133 61.5308 96.5139 61.5314C97.9654 62.889 99.3218 64.4548 100.137 66.1476C100.951 67.8355 101.222 69.6389 100.526 71.4963C99.7249 73.6345 98.088 74.9338 96.0952 75.699C94.097 76.4663 91.7546 76.6901 89.5834 76.6762C89.5828 76.6762 89.5822 76.6762 89.5817 76.6762L88.5142 76.6538L87.496 76.599C87.4955 76.5989 87.4949 76.5989 87.4944 76.5989C81.2166 76.1742 72.5303 74.0414 61.4828 69.9013C50.435 65.7612 42.4879 61.6615 37.4732 57.8548C37.4729 57.8546 37.4725 57.8543 37.4722 57.8541L37.0763 57.5472L37.073 57.5445L36.2586 56.8905L35.4367 56.1834C35.436 56.1829 35.4354 56.1823 35.4348 56.1818C33.867 54.7753 32.37 53.1123 31.4609 51.2864C30.5543 49.4656 30.2365 47.4934 31.0039 45.4429C31.7008 43.5866 33.0905 42.4066 34.8124 41.669C36.5391 40.9293 38.5896 40.6399 40.5751 40.5689C40.576 40.5689 40.5768 40.5689 40.5776 40.5688L41.6993 40.5504L42.2453 40.5576L42.2502 40.5577L43.3098 40.5926L43.3149 40.5928L44.3223 40.6466L44.4465 40.6532L44.5267 40.5581C47.1527 37.4442 50.4312 34.946 54.1302 33.2403C57.8291 31.5346 61.8579 30.6633 65.9311 30.688C70.0043 30.7128 74.0222 31.633 77.7002 33.3835C81.3772 35.1335 84.6244 37.6706 87.212 40.8151C91.5784 46.12 93.6483 52.5588 93.5411 58.9273ZM40.3718 46.5063L40.361 46.3343L39.5441 46.3855L39.5406 46.3858C39.091 46.4202 38.5905 46.4724 38.1123 46.5756C37.6363 46.6783 37.1662 46.8347 36.7864 47.087L36.7758 47.0941L36.7659 47.1023L36.4581 47.3556L36.4077 47.397L36.384 47.4578C36.1766 47.99 36.3981 48.5903 36.7066 49.1068C37.0239 49.6381 37.4811 50.1602 37.8782 50.5759L37.8782 50.576L37.8825 50.5803L38.5563 51.2519L38.8611 51.5557L38.974 51.1405C39.3899 49.6124 39.9357 48.1226 40.6056 46.6875L40.3718 46.5063ZM95.1496 69.2043C95.0936 68.8156 94.9232 68.435 94.705 68.0815C94.4522 67.672 94.124 67.2809 93.798 66.9321L93.7981 66.932L93.7938 66.9277L93.1696 66.2919L93.1697 66.2918L93.1651 66.2873C93.1484 66.2712 93.132 66.2554 93.116 66.2399C93.0347 66.1615 92.9619 66.0912 92.8948 66.0213L92.5935 65.7077L92.4741 66.126C92.0421 67.6408 91.4794 69.1233 90.7879 70.5559L90.601 70.943L91.0299 70.914L91.8895 70.8558L91.8895 70.8558L91.8934 70.8555C92.4141 70.8122 93.0377 70.7356 93.5992 70.5819C94.1493 70.4315 94.6931 70.1934 94.9961 69.7902L95.007 69.7757L95.0157 69.7598L95.1475 69.5182L95.2948 69.2483L95.1496 69.2043Z" stroke="url(#paint4_linear_2002_78)" stroke-width="0.5"/>
</g>
<g filter="url(#filter3_d_2002_78)">
<path fill-rule="evenodd" clip-rule="evenodd" d="M82.4841 80.9678C78.7236 83.764 74.322 85.5728 69.682 86.2286C65.042 86.8844 60.3116 86.3664 55.9235 84.7219C51.5354 83.0774 47.6296 80.359 44.5634 76.8152C41.4972 73.2714 39.3685 69.0153 38.372 64.4364C41.0484 66.0954 43.8132 67.6075 46.654 68.9659C50.9341 71.0134 55.306 72.8633 59.7559 74.5097C64.193 76.1931 68.705 77.6719 73.2777 78.9416C76.3075 79.7831 79.3809 80.4595 82.4841 80.9678ZM87.4051 40.6562C91.8106 46.0087 93.8992 52.5059 93.7911 58.9315L94.5916 59.5512L95.0039 59.8855L95.8426 60.5908L96.6829 61.3472C99.6078 64.0824 102.212 67.7114 100.76 71.584C99.0945 76.0287 93.9514 76.9544 89.5801 76.9262L88.5048 76.9037L87.4791 76.8484C81.1663 76.4216 72.4535 74.2796 61.3951 70.1355C50.3366 65.9913 42.3635 61.8812 37.321 58.0532L36.9198 57.7421L36.0988 57.0828L35.2697 56.3695C32.1109 53.5363 29.1749 49.6163 30.7699 45.355C32.2229 41.4848 36.568 40.4617 40.5687 40.319L41.6989 40.3003L42.2535 40.3077L43.3231 40.3429L44.3356 40.3969C46.9852 37.255 50.2933 34.7343 54.0255 33.0133C57.7577 31.2923 61.8228 30.4131 65.9326 30.4381C70.0425 30.463 74.0966 31.3915 77.8076 33.1578C81.5187 34.924 84.7959 37.4848 87.407 40.6586L87.4051 40.6562ZM40.3767 46.5838L39.5597 46.635C38.6681 46.7034 37.6106 46.8397 36.9247 47.2953L36.617 47.5486C36.2929 48.38 37.2717 49.579 38.059 50.4033L38.7328 51.0749C39.1524 49.533 39.7032 48.0298 40.3791 46.5818L40.3767 46.5838ZM94.9173 69.3952C94.8782 68.6126 94.2568 67.789 93.6154 67.1028L92.9912 66.467C92.8921 66.3711 92.799 66.2824 92.7146 66.1946C92.2786 67.7231 91.7108 69.2189 91.013 70.6646L91.8727 70.6064C92.9032 70.5205 94.2957 70.3061 94.7962 69.6401L94.9281 69.3984L94.9173 69.3952Z" fill="#FFC077"/>
<path d="M93.2912 58.9231L93.287 59.1735L93.485 59.3268L94.2811 59.9432L94.6855 60.2711L95.5143 60.9681L96.3449 61.7156C97.7853 63.0631 99.116 64.6037 99.9123 66.2561C100.704 67.8987 100.959 69.6301 100.292 71.4085C99.5223 73.4627 97.9507 74.7187 96.0056 75.4656C94.0497 76.2167 91.7436 76.4399 89.5869 76.4262C89.5857 76.4262 89.5845 76.4262 89.5833 76.4262L88.5235 76.404L87.5129 76.3495C87.5117 76.3495 87.5106 76.3494 87.5094 76.3493C81.2667 75.9267 72.6071 73.8031 61.5705 69.6672C50.5334 65.5311 42.6123 61.4418 37.6254 57.6564C37.6247 57.6559 37.624 57.6554 37.6234 57.6549L37.2296 57.3496L36.4185 56.6982L35.5997 55.9939C34.0437 54.5977 32.5735 52.9599 31.6847 51.175C30.801 49.4 30.5006 47.5008 31.2382 45.5303C31.9055 43.7532 33.2353 42.6166 34.9108 41.8988C36.5964 41.1767 38.611 40.8895 40.5817 40.8188L41.6997 40.8004L42.242 40.8076L43.3016 40.8425L44.309 40.8962L44.5575 40.9095L44.7179 40.7193C47.3201 37.6334 50.5692 35.1576 54.2349 33.4673C57.9005 31.777 61.8931 30.9135 65.9296 30.938C69.9661 30.9626 73.9479 31.8745 77.5927 33.6092C81.2367 35.3435 84.4547 37.8578 87.019 40.9739C91.3462 46.2313 93.3973 52.6118 93.2912 58.9231ZM40.3672 46.4329L40.3454 46.0848L39.5284 46.136L39.5284 46.136L39.5215 46.1365C39.0681 46.1712 38.5543 46.2245 38.0596 46.3312C37.569 46.437 37.0648 46.602 36.6481 46.8788L36.6268 46.893L36.607 46.9092L36.2992 47.1626L36.1985 47.2455L36.1511 47.367C35.8983 48.0157 36.1776 48.7086 36.492 49.235C36.824 49.7909 37.2969 50.3293 37.6975 50.7486L37.6974 50.7487L37.706 50.7574L38.3798 51.429L38.9893 52.0365L39.2153 51.2062C39.6274 49.6918 40.1683 48.2154 40.8321 46.7933L40.3672 46.4329ZM95.3684 69.0094C95.2874 68.6322 95.1175 68.2739 94.9177 67.9502C94.6526 67.5207 94.312 67.1158 93.9807 66.7614L93.9808 66.7613L93.9722 66.7525L93.348 66.1167L93.3482 66.1166L93.3389 66.1077C93.3216 66.0909 93.3049 66.0748 93.2886 66.0591C93.2074 65.9807 93.1386 65.9143 93.0751 65.8481L92.4723 65.2208L92.2337 66.0574C91.8056 67.5586 91.248 69.0276 90.5627 70.4472L90.189 71.2215L91.0468 71.1634L91.9064 71.1052L91.9064 71.1053L91.9142 71.1047C92.4403 71.0608 93.0817 70.9827 93.6651 70.8231C94.2258 70.6697 94.8403 70.4136 95.1959 69.9404L95.2177 69.9114L95.2351 69.8796L95.367 69.6379L95.6615 69.0983L95.3684 69.0094ZM73.1439 79.4233C75.8032 80.162 78.4959 80.7741 81.2128 81.2578C77.7422 83.612 73.7749 85.1451 69.612 85.7335C65.0548 86.3777 60.4088 85.8689 56.0989 84.2537C51.7891 82.6386 47.953 79.9686 44.9415 76.488C42.1908 73.3087 40.2082 69.5458 39.1396 65.4906C41.5088 66.9142 43.9444 68.2245 46.4383 69.417C50.7316 71.4708 55.1169 73.3264 59.5804 74.9779C64.0312 76.6664 68.5571 78.1498 73.1439 79.4233Z" stroke="url(#paint5_linear_2002_78)"/>
</g>
<defs>
<filter id="filter0_f_2002_78" x="85.6646" y="9.16017" width="72.5986" height="57.2583" filterUnits="userSpaceOnUse" color-interpolation-filters="sRGB">
<feFlood flood-opacity="0" result="BackgroundImageFix"/>
<feBlend mode="normal" in="SourceGraphic" in2="BackgroundImageFix" result="shape"/>
<feGaussianBlur stdDeviation="2" result="effect1_foregroundBlur_2002_78"/>
</filter>
<filter id="filter1_d_2002_78" x="85.6646" y="13.1602" width="72.5986" height="57.2583" filterUnits="userSpaceOnUse" color-interpolation-filters="sRGB">
<feFlood flood-opacity="0" result="BackgroundImageFix"/>
<feColorMatrix in="SourceAlpha" type="matrix" values="0 0 0 0 0 0 0 0 0 0 0 0 0 0 0 0 0 0 127 0" result="hardAlpha"/>
<feOffset dy="4"/>
<feGaussianBlur stdDeviation="2"/>
<feComposite in2="hardAlpha" operator="out"/>
<feColorMatrix type="matrix" values="0 0 0 0 0 0 0 0 0 0 0 0 0 0 0 0 0 0 0.25 0"/>
<feBlend mode="normal" in2="BackgroundImageFix" result="effect1_dropShadow_2002_78"/>
<feBlend mode="normal" in="SourceGraphic" in2="effect1_dropShadow_2002_78" result="shape"/>
</filter>
<filter id="filter2_f_2002_78" x="0.321777" y="0.437531" width="130.853" height="116.067" filterUnits="userSpaceOnUse" color-interpolation-filters="sRGB">
<feFlood flood-opacity="0" result="BackgroundImageFix"/>
<feBlend mode="normal" in="SourceGraphic" in2="BackgroundImageFix" result="shape"/>
<feGaussianBlur stdDeviation="15" result="effect1_foregroundBlur_2002_78"/>
</filter>
<filter id="filter3_d_2002_78" x="0.321777" y="4.43753" width="130.853" height="116.067" filterUnits="userSpaceOnUse" color-interpolation-filters="sRGB">
<feFlood flood-opacity="0" result="BackgroundImageFix"/>
<feColorMatrix in="SourceAlpha" type="matrix" values="0 0 0 0 0 0 0 0 0 0 0 0 0 0 0 0 0 0 127 0" result="hardAlpha"/>
<feOffset dy="4"/>
<feGaussianBlur stdDeviation="15"/>
<feComposite in2="hardAlpha" operator="out"/>
<feColorMatrix type="matrix" values="0 0 0 0 0 0 0 0 0 0 0 0 0 0 0 0 0 0 0.25 0"/>
<feBlend mode="normal" in2="BackgroundImageFix" result="effect1_dropShadow_2002_78"/>
<feBlend mode="normal" in="SourceGraphic" in2="effect1_dropShadow_2002_78" result="shape"/>
</filter>
<linearGradient id="paint0_linear_2002_78" x1="151.684" y1="13.2318" x2="98.9683" y2="39.1976" gradientUnits="userSpaceOnUse">
<stop stop-color="#5EB0EF"/>
<stop offset="1" stop-color="#0090FF"/>
</linearGradient>
<linearGradient id="paint1_linear_2002_78" x1="145.843" y1="22.4689" x2="74.2959" y2="59.7424" gradientUnits="userSpaceOnUse">
<stop stop-color="#FFC077"/>
<stop offset="1" stop-color="#FF0F00"/>
</linearGradient>
<linearGradient id="paint2_linear_2002_78" x1="151.684" y1="13.2318" x2="98.9683" y2="39.1976" gradientUnits="userSpaceOnUse">
<stop stop-color="#5EB0EF"/>
<stop offset="1" stop-color="#0090FF"/>
</linearGradient>
<linearGradient id="paint3_linear_2002_78" x1="145.843" y1="22.4689" x2="74.2959" y2="59.7424" gradientUnits="userSpaceOnUse">
<stop stop-color="#FFC077"/>
<stop offset="1" stop-color="#FF0F00"/>
</linearGradient>
<linearGradient id="paint4_linear_2002_78" x1="87.429" y1="40.6852" x2="44.1406" y2="76.3148" gradientUnits="userSpaceOnUse">
<stop stop-color="white"/>
<stop offset="1" stop-opacity="0.5"/>
</linearGradient>
<linearGradient id="paint5_linear_2002_78" x1="87.429" y1="40.6852" x2="46.5291" y2="79.516" gradientUnits="userSpaceOnUse">
<stop stop-color="#EDBDAE"/>
<stop offset="1" stop-color="#FF3D00" stop-opacity="0.5"/>
</linearGradient>
</defs>
</svg>
