<svg width="36" height="42" viewBox="0 0 36 42" fill="none" xmlns="http://www.w3.org/2000/svg">
<path d="M19.774 34.4061C20.3043 31.1102 21.9316 28.0882 24.3939 25.8264C26.8563 23.5647 30.0106 22.1947 33.3492 21.937C32.4668 20.2563 31.1691 18.8275 29.5787 17.7858C27.9884 16.744 26.1579 16.1237 24.2603 15.9834C23.2872 12.8195 21.3949 10.014 18.8227 7.92166C16.2504 5.82936 13.1138 4.54424 9.80934 4.22879C8.32677 4.16817 6.88091 4.69712 5.78984 5.6993C4.69876 6.70148 4.05185 8.09479 3.99141 9.57272C4.03698 12.8815 5.06573 16.1028 6.94759 18.8292C8.82945 21.5557 11.4799 23.6648 14.5638 24.89C14.5491 26.7867 15.0198 28.656 15.9315 30.3211C16.8432 31.9862 18.1657 33.3922 19.774 34.4061Z" fill="#A9D3F3"/>
<path d="M21.8178 28.9314C22.8293 30.9011 24.4079 32.525 26.351 33.5948C28.2942 34.6646 30.5134 35.1316 32.7243 34.9359C33.1004 32.7554 32.8147 30.5124 31.9038 28.4944C30.9928 26.4765 29.4982 24.7756 27.6114 23.6097M13.0694 15.6036C13.5616 15.6238 14.0415 15.4482 14.4037 15.1155C14.7659 14.7829 14.9806 14.3204 15.0007 13.8298C15.0207 13.3392 14.8445 12.8607 14.5107 12.4996C14.1769 12.1384 13.7129 11.9243 13.2207 11.9041C12.7286 11.884 12.2487 12.0596 11.8865 12.3923C11.5243 12.7249 11.3096 13.1874 11.2895 13.678C11.2695 14.1686 11.4457 14.6471 11.7795 15.0082C12.1133 15.3693 12.5773 15.5835 13.0694 15.6036Z" fill="#F9C486"/>
<g filter="url(#filter0_f_2002_32)">
<path d="M18.8016 32.5116C19.2987 29.4216 20.8243 26.5885 23.1327 24.4681C25.4412 22.3477 28.3983 21.0634 31.5283 20.8217C30.701 19.2461 29.4844 17.9066 27.9935 16.93C26.5025 15.9533 24.7865 15.3718 23.0075 15.2403C22.0952 12.2741 20.3212 9.64392 17.9097 7.68239C15.4982 5.72085 12.5576 4.51605 9.45968 4.22032C8.06977 4.16348 6.71428 4.65938 5.6914 5.59892C4.66852 6.53847 4.06204 7.8447 4.00538 9.23025C4.04809 12.3323 5.01255 15.3522 6.77679 17.9082C8.54104 20.4643 11.0258 22.4416 13.917 23.5902C13.9032 25.3684 14.3445 27.1208 15.1992 28.6819C16.0539 30.2429 17.2938 31.561 18.8016 32.5116Z" fill="url(#paint0_linear_2002_32)"/>
<path d="M20.7174 27.379C21.6657 29.2256 23.1456 30.748 24.9673 31.751C26.789 32.7539 28.8696 33.1917 30.9422 33.0083C31.2949 30.964 31.027 28.8612 30.173 26.9694C29.319 25.0775 27.9178 23.4829 26.1489 22.39M12.5158 14.8843C12.9772 14.9031 13.4271 14.7385 13.7667 14.4266C14.1062 14.1148 14.3075 13.6812 14.3263 13.2212C14.3451 12.7613 14.1799 12.3127 13.867 11.9742C13.554 11.6356 13.119 11.4348 12.6576 11.416C12.1963 11.3971 11.7463 11.5617 11.4068 11.8736C11.0673 12.1854 10.8659 12.619 10.8471 13.079C10.8283 13.5389 10.9936 13.9875 11.3065 14.326C11.6194 14.6646 12.0544 14.8654 12.5158 14.8843Z" fill="url(#paint1_linear_2002_32)"/>
</g>
<g filter="url(#filter1_d_2002_32)">
<path d="M18.8016 32.5116C19.2987 29.4216 20.8243 26.5885 23.1327 24.4681C25.4412 22.3477 28.3983 21.0634 31.5283 20.8218C30.701 19.2461 29.4844 17.9066 27.9935 16.93C26.5025 15.9534 24.7865 15.3718 23.0075 15.2403C22.0952 12.2741 20.3212 9.64394 17.9097 7.68241C15.4982 5.72088 12.5576 4.51607 9.45968 4.22035C8.06977 4.16351 6.71428 4.6594 5.6914 5.59895C4.66852 6.53849 4.06204 7.84472 4.00538 9.23027C4.04809 12.3323 5.01255 15.3522 6.77679 17.9083C8.54104 20.4643 11.0258 22.4416 13.917 23.5902C13.9032 25.3684 14.3445 27.1208 15.1992 28.6819C16.0539 30.2429 17.2938 31.561 18.8016 32.5116Z" fill="url(#paint2_linear_2002_32)"/>
<path d="M20.7174 27.379C21.6657 29.2257 23.1456 30.748 24.9673 31.751C26.789 32.7539 28.8696 33.1917 30.9422 33.0083C31.2949 30.964 31.027 28.8612 30.173 26.9694C29.319 25.0776 27.9178 23.483 26.1489 22.39M12.5158 14.8843C12.9772 14.9031 13.4271 14.7385 13.7667 14.4267C14.1062 14.1148 14.3075 13.6812 14.3263 13.2213C14.3451 12.7613 14.1799 12.3128 13.867 11.9742C13.554 11.6356 13.119 11.4348 12.6576 11.416C12.1963 11.3971 11.7463 11.5617 11.4068 11.8736C11.0673 12.1855 10.8659 12.6191 10.8471 13.079C10.8283 13.5389 10.9936 13.9875 11.3065 14.3261C11.6194 14.6646 12.0544 14.8654 12.5158 14.8843Z" fill="url(#paint3_linear_2002_32)"/>
</g>
<path d="M8.79802 6.14142C10.3417 6.20455 11.521 8.01647 11.4908 8.75665C11.4605 9.49683 10.2281 9.20602 8.65483 9.64272C7.08159 10.0794 5.85554 9.63303 5.90072 8.52805C5.94591 7.42307 7.25437 6.07829 8.79802 6.14142Z" fill="white" fill-opacity="0.2"/>
<defs>
<filter id="filter0_f_2002_32" x="0.00537109" y="0.215927" width="35.5229" height="36.8331" filterUnits="userSpaceOnUse" color-interpolation-filters="sRGB">
<feFlood flood-opacity="0" result="BackgroundImageFix"/>
<feBlend mode="normal" in="SourceGraphic" in2="BackgroundImageFix" result="shape"/>
<feGaussianBlur stdDeviation="2" result="effect1_foregroundBlur_2002_32"/>
</filter>
<filter id="filter1_d_2002_32" x="0.00537109" y="4.21595" width="35.5229" height="36.8331" filterUnits="userSpaceOnUse" color-interpolation-filters="sRGB">
<feFlood flood-opacity="0" result="BackgroundImageFix"/>
<feColorMatrix in="SourceAlpha" type="matrix" values="0 0 0 0 0 0 0 0 0 0 0 0 0 0 0 0 0 0 127 0" result="hardAlpha"/>
<feOffset dy="4"/>
<feGaussianBlur stdDeviation="2"/>
<feComposite in2="hardAlpha" operator="out"/>
<feColorMatrix type="matrix" values="0 0 0 0 0 0 0 0 0 0 0 0 0 0 0 0 0 0 0.25 0"/>
<feBlend mode="normal" in2="BackgroundImageFix" result="effect1_dropShadow_2002_32"/>
<feBlend mode="normal" in="SourceGraphic" in2="effect1_dropShadow_2002_32" result="shape"/>
</filter>
<linearGradient id="paint0_linear_2002_32" x1="3.23517" y1="6.66999" x2="21.4525" y2="30.1506" gradientUnits="userSpaceOnUse">
<stop stop-color="#5EB0EF"/>
<stop offset="1" stop-color="#0090FF"/>
</linearGradient>
<linearGradient id="paint1_linear_2002_32" x1="8.40454" y1="8.62554" x2="34.1364" y2="40.2877" gradientUnits="userSpaceOnUse">
<stop stop-color="#FFC077"/>
<stop offset="1" stop-color="#FF0F00"/>
</linearGradient>
<linearGradient id="paint2_linear_2002_32" x1="3.23517" y1="6.67001" x2="21.4525" y2="30.1506" gradientUnits="userSpaceOnUse">
<stop stop-color="#5EB0EF"/>
<stop offset="1" stop-color="#0090FF"/>
</linearGradient>
<linearGradient id="paint3_linear_2002_32" x1="8.40454" y1="8.62556" x2="34.1364" y2="40.2877" gradientUnits="userSpaceOnUse">
<stop stop-color="#FFC077"/>
<stop offset="1" stop-color="#FF0F00"/>
</linearGradient>
</defs>
</svg>
