<svg width="77" height="82" viewBox="0 0 77 82" fill="none" xmlns="http://www.w3.org/2000/svg">
<g filter="url(#filter0_f_2002_57)">
<path fill-rule="evenodd" clip-rule="evenodd" d="M38.8488 46.2085C37.5906 46.2671 36.3377 46.0094 35.2049 45.4588C34.072 44.9082 33.0953 44.0824 32.364 43.0568C31.6327 42.0313 31.1703 40.8387 31.0189 39.5883C30.8676 38.3378 31.0321 37.0694 31.4976 35.899C31.8451 36.6707 32.2344 37.423 32.6637 38.1524C33.3103 39.2516 34.0072 40.3205 34.7519 41.3558C35.4882 42.3973 36.272 43.4046 37.1007 44.3743C37.6498 45.0169 38.2333 45.6292 38.8488 46.2085ZM45.9993 37.961C46.1776 39.8158 45.6675 41.5778 44.6785 42.994L44.7639 43.2524L44.8056 43.3888L44.8867 43.672L44.9604 43.9668C45.2017 45.0158 45.2372 46.2157 44.3322 46.8611C43.2933 47.6018 42.0078 47.0358 41.0376 46.3731L40.8012 46.2066L40.5809 46.0403C39.2377 44.9971 37.6171 43.2112 35.7742 40.6268C33.9313 38.0423 32.7711 35.9288 32.2219 34.3182L32.1791 34.1886L32.0951 33.9183L32.0174 33.6348C31.7387 32.5289 31.6728 31.2141 32.6683 30.5037C33.5734 29.8591 34.6957 30.2836 35.609 30.8525L35.8637 31.0181L35.9862 31.103L36.2194 31.2715L36.437 31.4356C37.4994 31.133 38.6154 31.0679 39.7059 31.2447C40.7963 31.4215 41.8346 31.8359 42.747 32.4587C43.6594 33.0814 44.4237 33.8972 44.9858 34.8482C45.5479 35.7992 45.8939 36.8622 45.9994 37.9618L45.9993 37.961ZM34.6254 32.2203L34.4356 32.109C34.2265 31.9903 33.9703 31.8619 33.749 31.8605L33.6424 31.8707C33.4453 32.0074 33.4834 32.4217 33.5352 32.7237L33.5845 32.9746C33.9096 32.6939 34.2581 32.4415 34.6262 32.2202L34.6254 32.2203ZM43.3583 45.4957C43.4671 45.3154 43.4522 45.0385 43.4123 44.7892L43.3686 44.5537C43.3609 44.5175 43.3535 44.4837 43.3479 44.4514C43.0211 44.7267 42.6699 44.9749 42.2973 45.1924L42.4977 45.3085C42.7403 45.4441 43.0829 45.6054 43.2945 45.5321L43.3602 45.4981L43.3583 45.4957Z" fill="#FFC077"/>
<path d="M44.4019 42.9535L44.4736 42.8509C45.4297 41.4817 45.9227 39.7789 45.7505 37.9858C45.7505 37.9857 45.7505 37.9857 45.7505 37.9857L44.4019 42.9535ZM44.4019 42.9535L44.4412 43.0724L44.5257 43.3281L44.5659 43.4597L44.6452 43.7367L44.7173 44.0251C44.8344 44.5351 44.8964 45.0621 44.8287 45.5295C44.7618 45.9915 44.5709 46.3838 44.187 46.6576C43.7407 46.9758 43.238 47.02 42.7152 46.8997C42.1868 46.7781 41.6532 46.4907 41.18 46.1676C41.1795 46.1673 41.179 46.167 41.1786 46.1666L40.9486 46.0046L40.7342 45.8428C40.7338 45.8425 40.7333 45.8421 40.7329 45.8418C39.4176 44.82 37.8138 43.0566 35.9777 40.4816C34.1415 37.9065 32.997 35.816 32.4589 34.2387C32.4588 34.2383 32.4586 34.2379 32.4585 34.2375L32.4172 34.1124L32.3351 33.8482L32.2592 33.5713C32.1238 33.0333 32.0457 32.464 32.1129 31.9536C32.1793 31.4487 32.3854 31.0128 32.8135 30.7072C33.1974 30.4339 33.6304 30.3814 34.0888 30.4686C34.5527 30.5569 35.0306 30.787 35.4747 31.0635L35.7243 31.2257L35.8418 31.3071L36.0709 31.4726L36.2865 31.6352L36.3858 31.7101L36.5055 31.676C37.5327 31.3835 38.6116 31.3205 39.6659 31.4915C40.7201 31.6624 41.7239 32.0631 42.6061 32.6652C43.4882 33.2672 44.2272 34.0559 44.7706 34.9754C45.3138 35.8946 45.6484 36.9221 45.7504 37.9849L44.4019 42.9535ZM34.6631 32.1558L34.7518 32.0046L34.562 31.8933L34.562 31.8933L34.559 31.8916C34.4512 31.8304 34.3233 31.7621 34.1897 31.7087C34.0581 31.656 33.9056 31.6115 33.7506 31.6105L33.7378 31.6104L33.7251 31.6116L33.6184 31.6219L33.5535 31.6281L33.4999 31.6653C33.2986 31.8049 33.2551 32.0518 33.2458 32.2216C33.2356 32.4087 33.262 32.61 33.2887 32.7659L33.2887 32.7659L33.2899 32.7719L33.3392 33.0228L33.4222 33.445L33.7479 33.1638C34.0622 32.8924 34.3991 32.6484 34.755 32.4344L34.6631 32.1558ZM43.6472 45.4545C43.6755 45.3617 43.6873 45.2666 43.6909 45.1783C43.6967 45.0318 43.6803 44.882 43.6591 44.7496L43.6592 44.7496L43.6581 44.7436L43.6144 44.5081L43.6145 44.5081L43.6132 44.5019C43.6118 44.4951 43.6104 44.4888 43.6091 44.4827C43.6028 44.4531 43.598 44.4305 43.5941 44.4085L43.5194 43.98L43.1868 44.2603C42.8709 44.5264 42.5315 44.7663 42.1713 44.9765L41.8 45.1931L42.1719 45.4087L42.3723 45.5248L42.3723 45.5249L42.3757 45.5267C42.5018 45.5972 42.6637 45.6801 42.8277 45.7355C42.9805 45.7872 43.1877 45.8337 43.3764 45.7683L43.3935 45.7624L43.4096 45.7541L43.4753 45.72L43.7482 45.5784L43.6472 45.4545ZM36.9107 44.5367C37.332 45.0298 37.7734 45.5052 38.2338 45.9618C37.2227 45.9251 36.2281 45.6781 35.3142 45.2339C34.2189 44.7016 33.2746 43.9032 32.5676 42.9117C31.8606 41.9201 31.4134 40.7672 31.2671 39.5582C31.145 38.5495 31.2356 37.5287 31.5303 36.5609C31.8124 37.146 32.1186 37.7193 32.4482 38.2792C33.0986 39.3847 33.7994 40.4597 34.5483 41.5009C35.2889 42.5484 36.0772 43.5614 36.9107 44.5367Z" stroke="url(#paint0_linear_2002_57)" stroke-width="0.5"/>
</g>
<g filter="url(#filter1_d_2002_57)">
<path fill-rule="evenodd" clip-rule="evenodd" d="M38.8488 46.2085C37.5906 46.2671 36.3377 46.0094 35.2049 45.4588C34.072 44.9082 33.0953 44.0824 32.364 43.0568C31.6327 42.0313 31.1703 40.8387 31.0189 39.5883C30.8676 38.3378 31.0321 37.0694 31.4976 35.899C31.8451 36.6707 32.2344 37.423 32.6637 38.1524C33.3103 39.2516 34.0072 40.3205 34.7519 41.3558C35.4882 42.3973 36.272 43.4046 37.1007 44.3743C37.6498 45.0169 38.2333 45.6292 38.8488 46.2085ZM45.9993 37.961C46.1776 39.8158 45.6675 41.5778 44.6785 42.994L44.7639 43.2524L44.8056 43.3888L44.8867 43.672L44.9604 43.9668C45.2017 45.0158 45.2372 46.2157 44.3322 46.8611C43.2933 47.6018 42.0078 47.0358 41.0376 46.3731L40.8012 46.2066L40.5809 46.0403C39.2377 44.9971 37.6171 43.2112 35.7742 40.6268C33.9313 38.0423 32.7711 35.9288 32.2219 34.3182L32.1791 34.1886L32.0951 33.9183L32.0174 33.6348C31.7387 32.5289 31.6728 31.2141 32.6683 30.5037C33.5734 29.8591 34.6957 30.2836 35.609 30.8525L35.8637 31.0181L35.9862 31.103L36.2194 31.2715L36.437 31.4356C37.4994 31.133 38.6154 31.0679 39.7059 31.2447C40.7963 31.4215 41.8346 31.8359 42.747 32.4587C43.6594 33.0814 44.4237 33.8972 44.9858 34.8482C45.5479 35.7992 45.8939 36.8622 45.9994 37.9618L45.9993 37.961ZM34.6254 32.2203L34.4356 32.109C34.2265 31.9903 33.9703 31.8619 33.749 31.8605L33.6424 31.8707C33.4453 32.0074 33.4834 32.4217 33.5352 32.7237L33.5845 32.9746C33.9096 32.6939 34.2581 32.4415 34.6262 32.2202L34.6254 32.2203ZM43.3583 45.4957C43.4671 45.3154 43.4522 45.0385 43.4123 44.7892L43.3686 44.5537C43.3609 44.5175 43.3535 44.4837 43.3479 44.4514C43.0211 44.7267 42.6699 44.9749 42.2973 45.1924L42.4977 45.3085C42.7403 45.4441 43.0829 45.6054 43.2945 45.5321L43.3602 45.4981L43.3583 45.4957Z" fill="#FFC077"/>
<path d="M44.1252 42.9131L44.2686 42.7077C45.192 41.3854 45.668 39.7415 45.5017 38.0097C45.5017 38.0097 45.5017 38.0096 45.5016 38.0096L44.1252 42.9131ZM44.1252 42.9131L44.2038 43.1509L44.2874 43.4039M44.1252 42.9131L44.2874 43.4039M44.2874 43.4039L44.3262 43.5307L44.4037 43.8015L44.4742 44.0834C44.5878 44.5788 44.6426 45.0705 44.5813 45.4936C44.5216 45.9059 44.3571 46.2292 44.0419 46.454C43.6686 46.7201 43.2443 46.765 42.7713 46.6561C42.2869 46.5446 41.7838 46.277 41.3226 45.9623L41.0959 45.8026L40.8849 45.6433C39.5974 44.6427 38.0106 42.9019 36.1813 40.3365C34.3517 37.7707 33.223 35.7034 32.6959 34.1592L32.6553 34.0361L32.5751 33.778L32.501 33.5077C32.3696 32.9849 32.2995 32.4514 32.3608 31.9862C32.4205 31.5324 32.6 31.1669 32.9584 30.911L44.2874 43.4039ZM35.3406 31.2744C34.909 31.006 34.4621 30.7941 34.0421 30.7142C33.6329 30.6363 33.2737 30.6864 32.9584 30.911L35.3406 31.2744ZM35.3406 31.2744L35.585 31.4333L35.6974 31.5111L35.9224 31.6738L36.136 31.8348L36.3346 31.9846L36.5739 31.9164C37.5659 31.634 38.6078 31.5732 39.6259 31.7382C40.6439 31.9033 41.6133 32.2902 42.4651 32.8716C43.317 33.4531 44.0306 34.2147 44.5554 35.1026C45.08 35.9903 45.403 36.9825 45.5016 38.0089L35.3406 31.2744ZM37.5851 45.6571C37.2884 45.3457 37.0001 45.0263 36.7206 44.6991C35.8824 43.7183 35.0896 42.6996 34.3448 41.6461C33.5916 40.599 32.8868 39.5178 32.2328 38.406L37.5851 45.6571ZM37.5851 45.6571C36.837 45.5592 36.1069 45.3412 35.4234 45.0091C34.3658 44.495 33.4539 43.724 32.7711 42.7665C32.0884 41.809 31.6566 40.6956 31.5153 39.5282C31.424 38.7739 31.4558 38.0126 31.607 37.2735M37.5851 45.6571L31.607 37.2735M31.607 37.2735C31.8052 37.6565 32.0139 38.0342 32.2327 38.406L31.607 37.2735ZM34.7003 32.0924L34.8782 31.7889L34.6884 31.6776L34.6884 31.6776L34.6824 31.6742C34.5713 31.6111 34.4319 31.5362 34.2825 31.4765C34.1371 31.4184 33.9514 31.3618 33.7522 31.3605L33.7266 31.3603L33.7012 31.3628L33.5945 31.373L33.4646 31.3855L33.3574 31.4599C33.0534 31.6707 33.0061 32.0267 32.9962 32.208C32.9844 32.4237 33.0148 32.6472 33.0423 32.8081L33.0422 32.8081L33.0446 32.8202L33.0939 33.0711L33.26 33.9154L33.9113 33.353C34.2148 33.0909 34.5401 32.8553 34.8838 32.6487L34.7003 32.0924ZM44.1363 45.6588L43.9189 45.3921C43.932 45.32 43.9382 45.2509 43.9407 45.1882C43.9474 45.0183 43.9284 44.8501 43.906 44.7101L43.9061 44.7101L43.9039 44.698L43.8602 44.4626L43.8604 44.4625L43.8577 44.45C43.8561 44.4424 43.8547 44.4355 43.8533 44.4292C43.8471 44.3999 43.8434 44.3826 43.8404 44.3656L43.691 43.5085L43.0257 44.0691C42.7207 44.326 42.393 44.5576 42.0453 44.7606L41.3027 45.1939L42.0466 45.625L42.2469 45.7411L42.2469 45.7412L42.2537 45.745C42.3845 45.8181 42.5621 45.9097 42.7477 45.9724C42.9109 46.0275 43.1867 46.0986 43.4582 46.0046L43.4925 45.9927L43.5247 45.976L43.5904 45.9419L44.1363 45.6588Z" stroke="url(#paint1_linear_2002_57)"/>
</g>
<defs>
<filter id="filter0_f_2002_57" x="0.964355" y="0.180031" width="75.0698" height="77.031" filterUnits="userSpaceOnUse" color-interpolation-filters="sRGB">
<feFlood flood-opacity="0" result="BackgroundImageFix"/>
<feBlend mode="normal" in="SourceGraphic" in2="BackgroundImageFix" result="shape"/>
<feGaussianBlur stdDeviation="15" result="effect1_foregroundBlur_2002_57"/>
</filter>
<filter id="filter1_d_2002_57" x="0.964355" y="4.18003" width="75.0698" height="77.031" filterUnits="userSpaceOnUse" color-interpolation-filters="sRGB">
<feFlood flood-opacity="0" result="BackgroundImageFix"/>
<feColorMatrix in="SourceAlpha" type="matrix" values="0 0 0 0 0 0 0 0 0 0 0 0 0 0 0 0 0 0 127 0" result="hardAlpha"/>
<feOffset dy="4"/>
<feGaussianBlur stdDeviation="15"/>
<feComposite in2="hardAlpha" operator="out"/>
<feColorMatrix type="matrix" values="0 0 0 0 0 0 0 0 0 0 0 0 0 0 0 0 0 0 0.25 0"/>
<feBlend mode="normal" in2="BackgroundImageFix" result="effect1_dropShadow_2002_57"/>
<feBlend mode="normal" in="SourceGraphic" in2="effect1_dropShadow_2002_57" result="shape"/>
</filter>
<linearGradient id="paint0_linear_2002_57" x1="46.0003" y1="37.9711" x2="30.9998" y2="39.4132" gradientUnits="userSpaceOnUse">
<stop stop-color="white"/>
<stop offset="1" stop-opacity="0.5"/>
</linearGradient>
<linearGradient id="paint1_linear_2002_57" x1="46.0003" y1="37.9711" x2="31.0515" y2="40.4856" gradientUnits="userSpaceOnUse">
<stop stop-color="#EDBDAE"/>
<stop offset="1" stop-color="#FF3D00" stop-opacity="0.5"/>
</linearGradient>
</defs>
</svg>
